<svg id="Layer_17" data-name="Layer 17" xmlns="http://www.w3.org/2000/svg" viewBox="0 0 484.38 487.07"><defs><style>.cls-1{fill:#e4805d;}.cls-2{fill:#be1e2d;}</style></defs><path class="cls-1" d="M318.84,238.16c2.33-23.51,21.4-43.66,44.48-48.63L172.88,153a3.76,3.76,0,0,1-.15.9c-.82,3-3.7,4.16-6.53,3.71a3,3,0,0,0-1.45.27l-.17.12a6.14,6.14,0,0,0-.45.43,3.09,3.09,0,0,0-.49.75,8.72,8.72,0,0,0-.94,2.81c0-.11-.13,1.32-.12,1.23,0,.62,0,1.25,0,1.87a4.54,4.54,0,0,1-3,4.73,4.88,4.88,0,0,1-2.05,2.54h0c-10.61,9.75-17.11,24.06-18.68,38.39-1.36,12.36.1,29.6,5.83,41.68a208.32,208.32,0,0,0,32.54,43.73c26.28-14.38,55.83-16.72,85.33-11.58s57.42,16.82,85,28.41a231.69,231.69,0,0,1-20.72-35.58C321.1,265.23,317.51,251.63,318.84,238.16Z"/><path class="cls-2" d="M330.33,331.23l5.77,39.13c-35.67,0-161.92,2.08-171.77-3.13s-13.5-16.06-15.35-26.09c-4-21.58-15.94-39.12-27.7-57.9a78.91,78.91,0,0,1,34.65,10c15.91,9.05,27.39,23.3,44.1,31.32,14.21,6.81,30.45,7.45,46.2,7.94,17.57.54,34.76-.86,52.26-1.71C301.07,330.68,329.75,328.62,330.33,331.23Z"/><polygon class="cls-2" points="247.14 116.69 255.25 340.79 228.97 340.79 237.07 116.69 247.14 116.69"/><path class="cls-2" d="M160.86,150.74c-4.85,5.48-5.86,14.84-3.3,21.67l205,22.16.77-5Z"/></svg>