<svg id="Layer_17" data-name="Layer 17" xmlns="http://www.w3.org/2000/svg" viewBox="0 0 1083.73 408.8"><defs><style>.cls-1{fill:#e4805d;}.cls-2,.cls-3{fill:#be1e2d;}.cls-3{font-size:166.4px;font-family:OptimisticDisplay-Medium, Optimistic Display;font-weight:500;}.cls-4{letter-spacing:-0.02em;}.cls-5{letter-spacing:-0.04em;}.cls-6{letter-spacing:-0.02em;}.cls-7{letter-spacing:-0.02em;}.cls-8{letter-spacing:-0.02em;}</style></defs><path class="cls-1" d="M262.08,199.19c1.58-16,14.58-29.74,30.29-33.12L162.65,141.21a2.36,2.36,0,0,1-.1.61,3.73,3.73,0,0,1-4.45,2.53,2,2,0,0,0-1,.19l-.12.07c-.1.1-.21.19-.3.3a1.83,1.83,0,0,0-.34.51,6,6,0,0,0-.63,1.91c0-.07-.09.9-.09.84,0,.43,0,.85,0,1.28a3.09,3.09,0,0,1-2,3.22,3.39,3.39,0,0,1-1.4,1.73h0c-7.23,6.64-11.66,16.38-12.73,26.14-.92,8.43.08,20.17,4,28.4a141.87,141.87,0,0,0,22.17,29.79c17.9-9.8,38-11.4,58.12-7.89s39.12,11.46,57.93,19.35A158.33,158.33,0,0,1,267.57,226C263.62,217.63,261.17,208.37,262.08,199.19Z"/><path class="cls-2" d="M269.9,262.59l3.94,26.66c-24.3,0-110.31,1.41-117-2.14s-9.2-10.94-10.46-17.77c-2.72-14.7-10.86-26.64-18.87-39.44a53.89,53.89,0,0,1,23.61,6.82c10.83,6.16,18.65,15.87,30,21.33,9.67,4.64,20.74,5.08,31.46,5.41,12,.37,23.68-.58,35.6-1.16C250,262.22,269.51,260.82,269.9,262.59Z"/><polygon class="cls-2" points="213.24 116.45 218.76 269.1 200.86 269.1 206.38 116.45 213.24 116.45"/><path class="cls-2" d="M154.46,139.64c-3.3,3.74-4,10.11-2.25,14.77L291.85,169.5l.52-3.43Z"/><text class="cls-3" transform="translate(337.53 283.61)"><tspan class="cls-4">T</tspan><tspan class="cls-5" x="99.99" y="0">h</tspan><tspan class="cls-6" x="192.25" y="0">e</tspan><tspan class="cls-7" x="282.24" y="0">s</tspan><tspan class="cls-8" x="363.04" y="0">e</tspan><tspan class="cls-7" x="453.48" y="0">u</tspan><tspan x="548.84" y="0">s</tspan></text></svg>